<mxfile host="app.diagrams.net" modified="2022-02-21T02:55:48.321Z" agent="5.0 (Windows NT 10.0; Win64; x64) AppleWebKit/537.36 (KHTML, like Gecko) Chrome/98.0.4758.102 Safari/537.36" etag="T1vcwvy_vM_cEdtj0JN3" version="16.6.1" type="github">
  <diagram id="RcyMune0KPW6Q-b5uWD_" name="Page-1">
    <mxGraphModel dx="1422" dy="849" grid="1" gridSize="10" guides="1" tooltips="1" connect="1" arrows="1" fold="1" page="1" pageScale="1" pageWidth="827" pageHeight="1169" math="0" shadow="0">
      <root>
        <mxCell id="0" />
        <mxCell id="1" parent="0" />
        <mxCell id="PgHBNwZBbpcAS7DVFFbe-2" value="CPU Clusters" style="rounded=0;whiteSpace=wrap;html=1;align=left;verticalAlign=top;" vertex="1" parent="1">
          <mxGeometry x="120" y="90" width="340" height="150" as="geometry" />
        </mxCell>
        <mxCell id="PgHBNwZBbpcAS7DVFFbe-3" value="&lt;font style=&quot;font-size: 10px&quot;&gt;Cortex-A53&lt;/font&gt;" style="rounded=0;whiteSpace=wrap;html=1;align=left;verticalAlign=top;fontSize=9;" vertex="1" parent="1">
          <mxGeometry x="160" y="117.5" width="70" height="60" as="geometry" />
        </mxCell>
        <mxCell id="PgHBNwZBbpcAS7DVFFbe-5" value="&lt;font style=&quot;font-size: 10px&quot;&gt;Cortex-A53&lt;/font&gt;" style="rounded=0;whiteSpace=wrap;html=1;align=left;verticalAlign=top;fontSize=9;" vertex="1" parent="1">
          <mxGeometry x="150" y="137.5" width="70" height="60" as="geometry" />
        </mxCell>
        <mxCell id="PgHBNwZBbpcAS7DVFFbe-6" value="&lt;font style=&quot;font-size: 10px&quot;&gt;Cortex-A53&lt;/font&gt;" style="rounded=0;whiteSpace=wrap;html=1;align=left;verticalAlign=top;fontSize=9;" vertex="1" parent="1">
          <mxGeometry x="140" y="157.5" width="70" height="60" as="geometry" />
        </mxCell>
        <mxCell id="PgHBNwZBbpcAS7DVFFbe-7" value="&lt;font style=&quot;font-size: 10px&quot;&gt;Cortex-A53&lt;/font&gt;" style="rounded=0;whiteSpace=wrap;html=1;align=left;verticalAlign=top;fontSize=9;" vertex="1" parent="1">
          <mxGeometry x="130" y="177.5" width="70" height="52.5" as="geometry" />
        </mxCell>
        <mxCell id="PgHBNwZBbpcAS7DVFFbe-8" value="&lt;font style=&quot;font-size: 10px&quot;&gt;Cortex-A53&lt;/font&gt;" style="rounded=0;whiteSpace=wrap;html=1;align=left;verticalAlign=top;fontSize=9;" vertex="1" parent="1">
          <mxGeometry x="270" y="115" width="70" height="60" as="geometry" />
        </mxCell>
        <mxCell id="PgHBNwZBbpcAS7DVFFbe-9" value="&lt;font style=&quot;font-size: 10px&quot;&gt;Cortex-A53&lt;/font&gt;" style="rounded=0;whiteSpace=wrap;html=1;align=left;verticalAlign=top;fontSize=9;" vertex="1" parent="1">
          <mxGeometry x="260" y="135" width="70" height="60" as="geometry" />
        </mxCell>
        <mxCell id="PgHBNwZBbpcAS7DVFFbe-10" value="&lt;font style=&quot;font-size: 10px&quot;&gt;Cortex-A53&lt;/font&gt;" style="rounded=0;whiteSpace=wrap;html=1;align=left;verticalAlign=top;fontSize=9;" vertex="1" parent="1">
          <mxGeometry x="250" y="155" width="70" height="60" as="geometry" />
        </mxCell>
        <mxCell id="PgHBNwZBbpcAS7DVFFbe-11" value="&lt;font style=&quot;font-size: 10px&quot;&gt;Cortex-A53&lt;/font&gt;" style="rounded=0;whiteSpace=wrap;html=1;align=left;verticalAlign=top;fontSize=9;" vertex="1" parent="1">
          <mxGeometry x="240" y="175" width="70" height="60" as="geometry" />
        </mxCell>
        <mxCell id="PgHBNwZBbpcAS7DVFFbe-12" value="&lt;font style=&quot;font-size: 10px&quot;&gt;Cortex-A53&lt;/font&gt;" style="rounded=0;whiteSpace=wrap;html=1;align=left;verticalAlign=top;fontSize=9;" vertex="1" parent="1">
          <mxGeometry x="380" y="115" width="70" height="60" as="geometry" />
        </mxCell>
        <mxCell id="PgHBNwZBbpcAS7DVFFbe-13" value="&lt;font style=&quot;font-size: 10px&quot;&gt;Cortex-A53&lt;/font&gt;" style="rounded=0;whiteSpace=wrap;html=1;align=left;verticalAlign=top;fontSize=9;" vertex="1" parent="1">
          <mxGeometry x="370" y="135" width="70" height="60" as="geometry" />
        </mxCell>
        <mxCell id="PgHBNwZBbpcAS7DVFFbe-14" value="&lt;font style=&quot;font-size: 10px&quot;&gt;Cortex-A53&lt;/font&gt;" style="rounded=0;whiteSpace=wrap;html=1;align=left;verticalAlign=top;fontSize=9;" vertex="1" parent="1">
          <mxGeometry x="360" y="155" width="70" height="60" as="geometry" />
        </mxCell>
        <mxCell id="PgHBNwZBbpcAS7DVFFbe-15" value="&lt;font style=&quot;font-size: 10px&quot;&gt;Cortex-A53&lt;/font&gt;" style="rounded=0;whiteSpace=wrap;html=1;align=left;verticalAlign=top;fontSize=9;" vertex="1" parent="1">
          <mxGeometry x="350" y="175" width="70" height="60" as="geometry" />
        </mxCell>
        <mxCell id="PgHBNwZBbpcAS7DVFFbe-16" value="GIC" style="rounded=0;whiteSpace=wrap;html=1;fontSize=10;" vertex="1" parent="1">
          <mxGeometry x="650" y="180" width="70" height="60" as="geometry" />
        </mxCell>
        <mxCell id="PgHBNwZBbpcAS7DVFFbe-17" value="" style="shape=flexArrow;endArrow=classic;startArrow=classic;html=1;rounded=0;fontSize=10;startWidth=26;startSize=4;width=26;" edge="1" parent="1">
          <mxGeometry width="100" height="100" relative="1" as="geometry">
            <mxPoint x="90" y="300" as="sourcePoint" />
            <mxPoint x="880" y="300" as="targetPoint" />
          </mxGeometry>
        </mxCell>
        <mxCell id="PgHBNwZBbpcAS7DVFFbe-18" value="Main Bus (AXI-128bit)" style="edgeLabel;html=1;align=center;verticalAlign=middle;resizable=0;points=[];fontSize=10;" vertex="1" connectable="0" parent="PgHBNwZBbpcAS7DVFFbe-17">
          <mxGeometry x="-0.0987" y="-2" relative="1" as="geometry">
            <mxPoint as="offset" />
          </mxGeometry>
        </mxCell>
        <mxCell id="PgHBNwZBbpcAS7DVFFbe-21" value="SRAM" style="rounded=0;whiteSpace=wrap;html=1;fontSize=10;" vertex="1" parent="1">
          <mxGeometry x="750" y="180" width="70" height="60" as="geometry" />
        </mxCell>
        <mxCell id="PgHBNwZBbpcAS7DVFFbe-23" value="NorFlash" style="rounded=0;whiteSpace=wrap;html=1;fontSize=10;" vertex="1" parent="1">
          <mxGeometry x="100" y="420" width="70" height="60" as="geometry" />
        </mxCell>
        <mxCell id="PgHBNwZBbpcAS7DVFFbe-24" value="DDR0" style="rounded=0;whiteSpace=wrap;html=1;fontSize=10;" vertex="1" parent="1">
          <mxGeometry x="360" y="410" width="70" height="60" as="geometry" />
        </mxCell>
        <mxCell id="PgHBNwZBbpcAS7DVFFbe-28" value="" style="shape=flexArrow;endArrow=classic;startArrow=classic;html=1;rounded=0;fontSize=10;" edge="1" parent="1">
          <mxGeometry width="100" height="100" relative="1" as="geometry">
            <mxPoint x="85" y="360" as="sourcePoint" />
            <mxPoint x="285" y="360" as="targetPoint" />
          </mxGeometry>
        </mxCell>
        <mxCell id="PgHBNwZBbpcAS7DVFFbe-29" value="FlashBus(AXI-128bit)" style="edgeLabel;html=1;align=center;verticalAlign=middle;resizable=0;points=[];fontSize=10;" vertex="1" connectable="0" parent="PgHBNwZBbpcAS7DVFFbe-28">
          <mxGeometry x="-0.0987" y="-2" relative="1" as="geometry">
            <mxPoint y="-2" as="offset" />
          </mxGeometry>
        </mxCell>
        <mxCell id="PgHBNwZBbpcAS7DVFFbe-30" value="NANDC&lt;br&gt;ï¼ˆNandFlash)" style="rounded=0;whiteSpace=wrap;html=1;fontSize=10;" vertex="1" parent="1">
          <mxGeometry x="190" y="420" width="80" height="60" as="geometry" />
        </mxCell>
        <mxCell id="PgHBNwZBbpcAS7DVFFbe-34" value="DMA" style="rounded=0;whiteSpace=wrap;html=1;fontSize=10;" vertex="1" parent="1">
          <mxGeometry x="580" y="410" width="70" height="60" as="geometry" />
        </mxCell>
        <mxCell id="PgHBNwZBbpcAS7DVFFbe-35" value="" style="shape=flexArrow;endArrow=classic;startArrow=classic;html=1;rounded=0;fontSize=10;" edge="1" parent="1">
          <mxGeometry width="100" height="100" relative="1" as="geometry">
            <mxPoint x="340" y="360" as="sourcePoint" />
            <mxPoint x="540" y="360" as="targetPoint" />
          </mxGeometry>
        </mxCell>
        <mxCell id="PgHBNwZBbpcAS7DVFFbe-36" value="DDRBus(AXI-128bit)" style="edgeLabel;html=1;align=center;verticalAlign=middle;resizable=0;points=[];fontSize=10;" vertex="1" connectable="0" parent="PgHBNwZBbpcAS7DVFFbe-35">
          <mxGeometry x="-0.0987" y="-2" relative="1" as="geometry">
            <mxPoint y="-2" as="offset" />
          </mxGeometry>
        </mxCell>
        <mxCell id="PgHBNwZBbpcAS7DVFFbe-37" value="MMU" style="rounded=0;whiteSpace=wrap;html=1;fontSize=10;" vertex="1" parent="1">
          <mxGeometry x="130" y="215" width="70" height="20" as="geometry" />
        </mxCell>
        <mxCell id="PgHBNwZBbpcAS7DVFFbe-39" value="MMU" style="rounded=0;whiteSpace=wrap;html=1;fontSize=10;" vertex="1" parent="1">
          <mxGeometry x="240" y="215" width="70" height="20" as="geometry" />
        </mxCell>
        <mxCell id="PgHBNwZBbpcAS7DVFFbe-40" value="MMU" style="rounded=0;whiteSpace=wrap;html=1;fontSize=10;" vertex="1" parent="1">
          <mxGeometry x="350" y="215" width="70" height="20" as="geometry" />
        </mxCell>
        <mxCell id="PgHBNwZBbpcAS7DVFFbe-41" value="IOMMU/SMMU" style="rounded=0;whiteSpace=wrap;html=1;fontSize=10;" vertex="1" parent="1">
          <mxGeometry x="587" y="350" width="143" height="25" as="geometry" />
        </mxCell>
        <mxCell id="PgHBNwZBbpcAS7DVFFbe-43" value="" style="endArrow=classic;startArrow=classic;html=1;rounded=0;fontSize=10;exitX=0.5;exitY=0;exitDx=0;exitDy=0;entryX=0.196;entryY=1;entryDx=0;entryDy=0;entryPerimeter=0;" edge="1" parent="1" source="PgHBNwZBbpcAS7DVFFbe-34" target="PgHBNwZBbpcAS7DVFFbe-41">
          <mxGeometry width="50" height="50" relative="1" as="geometry">
            <mxPoint x="615" y="515" as="sourcePoint" />
            <mxPoint x="770" y="450" as="targetPoint" />
          </mxGeometry>
        </mxCell>
        <mxCell id="PgHBNwZBbpcAS7DVFFbe-44" value="" style="endArrow=classic;startArrow=classic;html=1;rounded=0;fontSize=10;entryX=0.5;entryY=0;entryDx=0;entryDy=0;" edge="1" parent="1" target="PgHBNwZBbpcAS7DVFFbe-41">
          <mxGeometry width="50" height="50" relative="1" as="geometry">
            <mxPoint x="659" y="320" as="sourcePoint" />
            <mxPoint x="745" y="167.5" as="targetPoint" />
          </mxGeometry>
        </mxCell>
        <mxCell id="PgHBNwZBbpcAS7DVFFbe-45" value="PCIE" style="rounded=0;whiteSpace=wrap;html=1;fontSize=10;" vertex="1" parent="1">
          <mxGeometry x="670" y="410" width="70" height="60" as="geometry" />
        </mxCell>
        <mxCell id="PgHBNwZBbpcAS7DVFFbe-46" value="" style="endArrow=classic;startArrow=classic;html=1;rounded=0;fontSize=10;exitX=0.825;exitY=0.8;exitDx=0;exitDy=0;exitPerimeter=0;" edge="1" parent="1" source="PgHBNwZBbpcAS7DVFFbe-41">
          <mxGeometry width="50" height="50" relative="1" as="geometry">
            <mxPoint x="705" y="380" as="sourcePoint" />
            <mxPoint x="705" y="410" as="targetPoint" />
          </mxGeometry>
        </mxCell>
        <mxCell id="PgHBNwZBbpcAS7DVFFbe-47" value="" style="endArrow=classic;startArrow=classic;html=1;rounded=0;fontSize=10;entryX=0.5;entryY=1;entryDx=0;entryDy=0;" edge="1" parent="1" target="PgHBNwZBbpcAS7DVFFbe-21">
          <mxGeometry width="50" height="50" relative="1" as="geometry">
            <mxPoint x="785" y="290" as="sourcePoint" />
            <mxPoint x="928.5" y="250" as="targetPoint" />
          </mxGeometry>
        </mxCell>
        <mxCell id="PgHBNwZBbpcAS7DVFFbe-48" value="" style="endArrow=classic;startArrow=classic;html=1;rounded=0;fontSize=10;entryX=0.5;entryY=1;entryDx=0;entryDy=0;" edge="1" parent="1" target="PgHBNwZBbpcAS7DVFFbe-16">
          <mxGeometry width="50" height="50" relative="1" as="geometry">
            <mxPoint x="685" y="290" as="sourcePoint" />
            <mxPoint x="795" y="250" as="targetPoint" />
          </mxGeometry>
        </mxCell>
        <mxCell id="PgHBNwZBbpcAS7DVFFbe-49" value="" style="endArrow=classic;startArrow=classic;html=1;rounded=0;fontSize=10;entryX=0.5;entryY=1;entryDx=0;entryDy=0;" edge="1" parent="1" target="PgHBNwZBbpcAS7DVFFbe-2">
          <mxGeometry width="50" height="50" relative="1" as="geometry">
            <mxPoint x="290" y="290" as="sourcePoint" />
            <mxPoint x="555" y="250" as="targetPoint" />
          </mxGeometry>
        </mxCell>
        <mxCell id="PgHBNwZBbpcAS7DVFFbe-50" value="" style="endArrow=classic;startArrow=classic;html=1;rounded=0;fontSize=10;" edge="1" parent="1">
          <mxGeometry width="50" height="50" relative="1" as="geometry">
            <mxPoint x="180" y="353" as="sourcePoint" />
            <mxPoint x="180" y="313" as="targetPoint" />
          </mxGeometry>
        </mxCell>
        <mxCell id="PgHBNwZBbpcAS7DVFFbe-51" value="" style="endArrow=classic;startArrow=classic;html=1;rounded=0;fontSize=10;exitX=0.5;exitY=0;exitDx=0;exitDy=0;" edge="1" parent="1" source="PgHBNwZBbpcAS7DVFFbe-23">
          <mxGeometry width="50" height="50" relative="1" as="geometry">
            <mxPoint x="190" y="370" as="sourcePoint" />
            <mxPoint x="135" y="370" as="targetPoint" />
          </mxGeometry>
        </mxCell>
        <mxCell id="PgHBNwZBbpcAS7DVFFbe-52" value="" style="endArrow=classic;startArrow=classic;html=1;rounded=0;fontSize=10;" edge="1" parent="1" source="PgHBNwZBbpcAS7DVFFbe-30">
          <mxGeometry width="50" height="50" relative="1" as="geometry">
            <mxPoint x="145" y="430" as="sourcePoint" />
            <mxPoint x="230" y="370" as="targetPoint" />
          </mxGeometry>
        </mxCell>
        <mxCell id="PgHBNwZBbpcAS7DVFFbe-53" value="DDR1" style="rounded=0;whiteSpace=wrap;html=1;fontSize=10;" vertex="1" parent="1">
          <mxGeometry x="460" y="410" width="70" height="60" as="geometry" />
        </mxCell>
        <mxCell id="PgHBNwZBbpcAS7DVFFbe-54" value="" style="endArrow=classic;startArrow=classic;html=1;rounded=0;fontSize=10;" edge="1" parent="1">
          <mxGeometry width="50" height="50" relative="1" as="geometry">
            <mxPoint x="430" y="352" as="sourcePoint" />
            <mxPoint x="430" y="312" as="targetPoint" />
          </mxGeometry>
        </mxCell>
        <mxCell id="PgHBNwZBbpcAS7DVFFbe-55" value="" style="endArrow=classic;startArrow=classic;html=1;rounded=0;fontSize=10;exitX=0.5;exitY=0;exitDx=0;exitDy=0;" edge="1" parent="1" source="PgHBNwZBbpcAS7DVFFbe-24">
          <mxGeometry width="50" height="50" relative="1" as="geometry">
            <mxPoint x="440" y="360" as="sourcePoint" />
            <mxPoint x="395" y="370" as="targetPoint" />
          </mxGeometry>
        </mxCell>
        <mxCell id="PgHBNwZBbpcAS7DVFFbe-56" value="" style="endArrow=classic;startArrow=classic;html=1;rounded=0;fontSize=10;exitX=0.5;exitY=0;exitDx=0;exitDy=0;" edge="1" parent="1" source="PgHBNwZBbpcAS7DVFFbe-53">
          <mxGeometry width="50" height="50" relative="1" as="geometry">
            <mxPoint x="405" y="420" as="sourcePoint" />
            <mxPoint x="495" y="370" as="targetPoint" />
          </mxGeometry>
        </mxCell>
        <mxCell id="PgHBNwZBbpcAS7DVFFbe-57" value="" style="shape=flexArrow;endArrow=classic;startArrow=classic;html=1;rounded=0;fontSize=10;" edge="1" parent="1">
          <mxGeometry width="100" height="100" relative="1" as="geometry">
            <mxPoint x="950" y="480" as="sourcePoint" />
            <mxPoint x="950" y="110" as="targetPoint" />
          </mxGeometry>
        </mxCell>
        <mxCell id="PgHBNwZBbpcAS7DVFFbe-58" value="PeriipheralBus(API-32bit)" style="edgeLabel;html=1;align=center;verticalAlign=middle;resizable=0;points=[];fontSize=10;" vertex="1" connectable="0" parent="PgHBNwZBbpcAS7DVFFbe-57">
          <mxGeometry x="-0.0987" y="-2" relative="1" as="geometry">
            <mxPoint y="-2" as="offset" />
          </mxGeometry>
        </mxCell>
        <mxCell id="PgHBNwZBbpcAS7DVFFbe-59" value="" style="endArrow=classic;startArrow=classic;html=1;rounded=0;fontSize=10;" edge="1" parent="1">
          <mxGeometry width="50" height="50" relative="1" as="geometry">
            <mxPoint x="880" y="300" as="sourcePoint" />
            <mxPoint x="920" y="300" as="targetPoint" />
          </mxGeometry>
        </mxCell>
        <mxCell id="PgHBNwZBbpcAS7DVFFbe-60" value="UART" style="rounded=0;whiteSpace=wrap;html=1;fontSize=10;horizontal=1;" vertex="1" parent="1">
          <mxGeometry x="1000" y="150" width="80" height="20" as="geometry" />
        </mxCell>
        <mxCell id="PgHBNwZBbpcAS7DVFFbe-61" value="" style="endArrow=classic;startArrow=classic;html=1;rounded=0;fontSize=10;" edge="1" parent="1">
          <mxGeometry width="50" height="50" relative="1" as="geometry">
            <mxPoint x="957" y="159.5" as="sourcePoint" />
            <mxPoint x="997" y="160" as="targetPoint" />
          </mxGeometry>
        </mxCell>
        <mxCell id="PgHBNwZBbpcAS7DVFFbe-62" value="Cortex-M4" style="rounded=0;whiteSpace=wrap;html=1;fontSize=10;" vertex="1" parent="1">
          <mxGeometry x="510" y="180" width="70" height="60" as="geometry" />
        </mxCell>
        <mxCell id="PgHBNwZBbpcAS7DVFFbe-64" value="" style="endArrow=classic;startArrow=classic;html=1;rounded=0;fontSize=10;entryX=0.5;entryY=1;entryDx=0;entryDy=0;" edge="1" parent="1" target="PgHBNwZBbpcAS7DVFFbe-62">
          <mxGeometry width="50" height="50" relative="1" as="geometry">
            <mxPoint x="545" y="290" as="sourcePoint" />
            <mxPoint x="695" y="250" as="targetPoint" />
          </mxGeometry>
        </mxCell>
      </root>
    </mxGraphModel>
  </diagram>
</mxfile>
